<?xml version="1.0" encoding="UTF-8" standalone="no"?>
<!-- Generator: Adobe Illustrator 12.0.0, SVG Export Plug-In . SVG Version: 6.00 Build 51448)  -->

<svg
   xmlns:dc="http://purl.org/dc/elements/1.1/"
   xmlns:cc="http://creativecommons.org/ns#"
   xmlns:rdf="http://www.w3.org/1999/02/22-rdf-syntax-ns#"
   xmlns:svg="http://www.w3.org/2000/svg"
   xmlns="http://www.w3.org/2000/svg"
   xmlns:sodipodi="http://sodipodi.sourceforge.net/DTD/sodipodi-0.dtd"
   xmlns:inkscape="http://www.inkscape.org/namespaces/inkscape"
   id="Layer_1"
   style="enable-background:new 0 0 82.08 136.238"
   space="preserve"
   sodipodi:docname="guy.svg"
   viewBox="0 0 82.08 136.238"
   sodipodi:version="0.32"
   version="1.1"
   inkscape:output_extension="org.inkscape.output.svg.inkscape"
   inkscape:version="0.48.4 r9939"
   width="100%"
   height="100%">
  <defs
     id="defs214">
    <linearGradient
       id="XMLID_21_"
       y2="472.53"
       gradientUnits="userSpaceOnUse"
       y1="472.53"
       gradientTransform="matrix(0 -132.47 -132.47 0 62635 -34991)"
       x2="-263.48"
       x1="-265.15">
      <stop
         id="stop16"
         style="stop-color:#7FB5F7"
         offset="0" />
      <stop
         id="stop18"
         style="stop-color:#063DA7"
         offset="1" />
    </linearGradient>
    <linearGradient
       id="XMLID_22_"
       y2="472.55"
       gradientUnits="userSpaceOnUse"
       y1="472.55"
       gradientTransform="matrix(0 -132.47 -132.47 0 62635 -34991)"
       x2="-263.47"
       x1="-265.16">
      <stop
         id="stop23"
         style="stop-color:#7ED8FC"
         offset="0" />
      <stop
         id="stop25"
         style="stop-color:#0649AA"
         offset="1" />
    </linearGradient>
    <linearGradient
       id="XMLID_23_"
       y2="472.53"
       gradientUnits="userSpaceOnUse"
       y1="472.53"
       gradientTransform="matrix(0 -132.47 -132.47 0 62635 -34991)"
       x2="-263.47"
       x1="-265.16">
      <stop
         id="stop30"
         style="stop-color:#5471AF"
         offset="0" />
      <stop
         id="stop32"
         style="stop-color:#042676"
         offset="1" />
    </linearGradient>
    <linearGradient
       id="XMLID_24_"
       y2="472.53"
       gradientUnits="userSpaceOnUse"
       y1="472.53"
       gradientTransform="matrix(0 -132.47 -132.47 0 62635 -34991)"
       x2="-263.47"
       x1="-265.15">
      <stop
         id="stop37"
         style="stop-color:#68A0F2"
         offset="0" />
      <stop
         id="stop39"
         style="stop-color:#0536A3"
         offset="1" />
    </linearGradient>
    <radialGradient
       id="XMLID_29_"
       gradientUnits="userSpaceOnUse"
       cy="466.57"
       cx="-325.75"
       gradientTransform="matrix(16.729 -0.005 -0.005 -16.729 5488.5 7876.9)"
       r="1.6703">
      <stop
         id="stop94"
         style="stop-color:#B9DAF4"
         offset="0" />
      <stop
         id="stop96"
         style="stop-color:#7A97CB"
         offset="1" />
    </radialGradient>
    <linearGradient
       id="XMLID_30_"
       y2="543.15"
       gradientUnits="userSpaceOnUse"
       y1="543.15"
       gradientTransform="matrix(-.99180 -12.804 -12.804 .99180 6744.6 -3744.8)"
       x2="-255.81"
       x1="-257.44">
      <stop
         id="stop111"
         style="stop-color:#FFFFFF"
         offset="0" />
      <stop
         id="stop113"
         style="stop-color:#FDFEFF"
         offset=".4625" />
      <stop
         id="stop115"
         style="stop-color:#F6FAFF"
         offset=".6291" />
      <stop
         id="stop117"
         style="stop-color:#EBF4FF"
         offset=".7478" />
      <stop
         id="stop119"
         style="stop-color:#DAEAFF"
         offset=".8438" />
      <stop
         id="stop121"
         style="stop-color:#C4DEFF"
         offset=".9251" />
      <stop
         id="stop123"
         style="stop-color:#A9D0FF"
         offset=".9967" />
      <stop
         id="stop125"
         style="stop-color:#A8CFFF"
         offset="1" />
    </linearGradient>
    <linearGradient
       id="XMLID_31_"
       y2="460.09"
       gradientUnits="userSpaceOnUse"
       y1="460.09"
       gradientTransform="matrix(100.55 113.72 113.72 -100.55 -25192 76932)"
       x2="-268.41"
       x1="-270.08">
      <stop
         id="stop142"
         style="stop-color:#FFD8BF"
         offset="0" />
      <stop
         id="stop144"
         style="stop-color:#BF7400"
         offset=".5393" />
      <stop
         id="stop146"
         style="stop-color:#000000"
         offset="1" />
    </linearGradient>
    <linearGradient
       id="XMLID_32_"
       y2="455.77"
       gradientUnits="userSpaceOnUse"
       y1="455.77"
       gradientTransform="matrix(25.13 103.51 103.51 -25.13 -40422 39142)"
       x2="-266.57"
       x1="-268.27">
      <stop
         id="stop153"
         style="stop-color:#FFD8BF"
         offset="0" />
      <stop
         id="stop155"
         style="stop-color:#BF7400"
         offset=".5393" />
      <stop
         id="stop157"
         style="stop-color:#000000"
         offset="1" />
    </linearGradient>
    <linearGradient
       id="XMLID_33_"
       y2="460.1"
       gradientUnits="userSpaceOnUse"
       y1="460.1"
       gradientTransform="matrix(100.55 113.72 113.72 -100.55 -25192 76932)"
       x2="-268.4"
       x1="-270.09">
      <stop
         id="stop172"
         style="stop-color:#F3C192"
         offset="0" />
      <stop
         id="stop174"
         style="stop-color:#D49035"
         offset=".5393" />
      <stop
         id="stop176"
         style="stop-color:#765735"
         offset="1" />
    </linearGradient>
    <linearGradient
       id="XMLID_34_"
       y2="455.77"
       gradientUnits="userSpaceOnUse"
       y1="455.77"
       gradientTransform="matrix(25.13 103.51 103.51 -25.13 -40422 39142)"
       x2="-266.58"
       x1="-268.26">
      <stop
         id="stop183"
         style="stop-color:#F3C192"
         offset="0" />
      <stop
         id="stop185"
         style="stop-color:#D49035"
         offset=".5393" />
      <stop
         id="stop187"
         style="stop-color:#765735"
         offset="1" />
    </linearGradient>
    <radialGradient
       id="XMLID_35_"
       gradientUnits="userSpaceOnUse"
       cy="466.06"
       cx="-296.49"
       gradientTransform="matrix(32.319 0 0 -32.319 9620.6 15112)"
       r="1.685">
      <stop
         id="stop192"
         style="stop-color:#FFFA5F"
         offset="0" />
      <stop
         id="stop194"
         style="stop-color:#9F3300"
         offset="1" />
    </radialGradient>
    <linearGradient
       id="XMLID_36_"
       y2="440.47"
       gradientUnits="userSpaceOnUse"
       y1="440.47"
       gradientTransform="matrix(11.5 4.0001 4.0001 -11.5 2213.4 6484.9)"
       x2="-344.6"
       x1="-346.29">
      <stop
         id="stop201"
         style="stop-color:#FFFFFF"
         offset="0" />
      <stop
         id="stop203"
         style="stop-color:#818181"
         offset="1" />
    </linearGradient>
  </defs>
  <sodipodi:namedview
     id="base"
     bordercolor="#666666"
     inkscape:pageshadow="2"
     inkscape:window-width="1920"
     pagecolor="#ffffff"
     inkscape:zoom="3.736968"
     inkscape:window-x="0"
     borderopacity="1.0"
     inkscape:current-layer="Layer_1"
     inkscape:cx="66.476931"
     inkscape:cy="61.272607"
     inkscape:window-y="33"
     inkscape:window-height="975"
     inkscape:pageopacity="0.0"
     showgrid="false"
     inkscape:window-maximized="1" />
  <path
     id="path5"
     style="fill:#5691ff"
     d="m81.112 104.35c0 22.97-22.022 31.07-41.758 30.56-21.918-0.56-41.092-11.95-38.2-36.133 2.489-20.824 18.881-44.701 42.179-43.32 23.758 1.407 37.779 27.432 37.779 48.893" />
  <path
     id="path7"
     style="fill:#55b4ff"
     d="m41.482 56.278c-22.668 0-37.951 23.9-39.639 44.332-1.95 23.64 18.663 33.43 39.471 33.43-18.877 0-39.17-8.46-38.221-30.27 0.909-20.892 17.266-37.366 38.374-37.366 20.104 0 35.56 14.75 37.217 34.666 1.901 22.88-16.798 32.97-37.339 32.97 20.093 0 39.72-9.34 38.831-32.01-0.818-20.898-15.363-45.752-38.694-45.752" />
  <path
     id="path9"
     style="fill:#2b4ddd"
     d="m12.218 70.282c-12.674 15.872-19.631 44.858 0.201 58.088 16.13 10.76 45.612 10.98 60.429-2.43 15.634-14.15 9.061-41.158-2.367-55.806-15.706-20.128-42.391-19.683-58.263 0.148m-10.685 34.778c0-22.32 16.523-50.331 41.712-48.867 22.688 1.318 36.308 25.442 37.084 45.987 0.823 21.82-17.098 31.45-36.808 31.97-18.83 0.49-41.988-6.56-41.988-29.09" />
  <path
     id="path11"
     style="fill:#3f7cff"
     d="m41.418 123.23c-13.387 0-29.547-2.01-39.309-12.25 3.43 17.07 21.658 22.75 36.991 23.17 16.438 0.45 36.641-4.41 40.572-22.94-9.476 10.07-25.179 12.02-38.254 12.02" />
  <path
     id="path13"
     style="fill:#3f7cff"
     d="m41.482 55.841c21.281 0 35.308 21.513 37.542 40.673 2.584 22.156-12.88 34.196-33.755 35.336-18.738 1.01-42.75-5.85-42.75-28.48 0-20.729 14.254-45.895 36.962-47.47-22.745 1.539-37.371 26.176-38.208 46.98-0.954 23.68 21.856 32.11 42.054 31.59 20.956-0.54 38.928-11.42 37.188-34.37-1.558-20.531-16.191-44.259-39.033-44.259" />
  <path
     id="path20"
     style="fill:url(#XMLID_21_)"
     d="m49.752 76.09c-2.299 2.819-5.076 5.638-8.507 3.118-2.287 2.174-3.334 2.181-1.469 5.102 1.594 2.489 1.637 4.199 4.82 3.992 3.443-0.227 9.239-0.483 10.478-4.068 0.915-2.647 2.06-3.489-0.508-5.266-1.536-1.066-3.151-2.023-4.814-2.878m16.045-0.73c-0.61 0.342-1.219 0.684-1.826 1.029 1.439 0.507 1.087 0.721 1.826-1.029m-46.023-2.536c-3.827 2.556-1.375 4.233 1.615 6.967 1.527 1.394 2.867 3.555 4.673 1.992 1.213-1.049 2.717-2.006 3.705-3.285-3.602-1.118-10.258-0.125-9.993-5.674m2.94-10.455c-1.279 0.895-7.699 5.157-7.49 6.825 2.273-2.536 4.861-4.68 7.49-6.825m36.175-0.94c-0.75 0.474 0.945 0.868 1.442 0.97-0.48-0.322-0.962-0.648-1.442-0.97" />
  <path
     id="path27"
     style="fill:url(#XMLID_22_)"
     d="m58.891 64.208c-0.528 0.372-1.056 0.743-1.586 1.118 0.486 0.312 0.975 0.625 1.461 0.937 0.042-0.684 0.083-1.371 0.125-2.055m-37.344-0.846c-4.602 3.463-7.734 5.766-4.384 11.377 3.241-2.602 3.532-6.075 6.209-9.41-0.628-0.414-2.716-1.184-1.825-1.967m37.203-1.848c-0.289 0.174-0.581 0.349-0.869 0.52 2.346 1.842 0.385 0.365 2.143 0.333-0.424-0.284-0.849-0.566-1.274-0.853" />
  <path
     id="path34"
     style="fill:url(#XMLID_23_)"
     d="m23.914 61.386c-2.872 1.901-5.479 4.183-7.803 6.719 0.692-0.73 7.14-7.16 7.803-6.719m35.074-0.02c-0.668 0.435 0.972 0.898 1.529 1.082-0.508-0.358-1.019-0.72-1.529-1.082m-36.301-0.792c-2.604 1.729-7.667 4.63-7.505 8.051 2.541-2.79 5.414-5.286 8.589-7.328-0.363-0.243-0.723-0.483-1.084-0.723m37.54-0.03c-0.358 0.239-0.715 0.477-1.073 0.717 2.943 1.917 5.533 4.167 7.906 6.761-0.204-3.446-4.13-5.679-6.833-7.478" />
  <path
     id="path41"
     style="fill:url(#XMLID_24_)"
     d="m65.606 66.503c0.487 0.592 0.978 1.187 1.467 1.779 0.017-0.812-0.474-1.404-1.467-1.779m-41.835-5.206c-1.819 1.171-8.77 5.476-8.554 7.814 0.91-1.055 7.807-8.304 8.554-7.814m35.382-0.036c-0.723 0.46 2.187 1.568 2.52 1.789-0.816-0.632-1.657-1.226-2.52-1.789" />
  <path
     id="path43"
     style="fill:#f4f4f4"
     d="m57.242 59.462c-10.053-7.071-23.142-5.917-33.401 0.395 2.919 4.551 6.257 8.847 10.004 12.748 2.182 2.269 6.107 7.137 9.39 7.791 7.419 1.483 13.308-16.05 14.007-20.934" />
  <path
     id="path98"
     style="fill:url(#XMLID_29_)"
     d="m26.949 63.083c0.338 2.302 1.538 2.453 3.002 1.286-1.022-0.378-2.022-0.806-3.002-1.286m29.603-0.322c-0.62 0.296-1.239 0.592-1.859 0.888 0.443 0.283 0.888 0.569 1.332 0.855 0.174-0.582 0.351-1.161 0.527-1.743m-31.073-0.444c0.365 0.53 0.622 0.342 0 0" />
  <path
     id="path100"
     style="fill:#d6dbff"
     d="m33.73 74.689c0-2.667 19.451 0.125 21.361 0.539 2.826 0.618 4.326 0.971 3.703 4.046-0.863 4.262-2.514 8.442-4.229 12.421-1.072 2.486-2.679 7.614-5.361 8.915-1.754 0.85-4.552-4.481-5.178-5.478-2.52-4.006-4.752-8.202-6.856-12.438-1.057-2.131-3.44-5.518-3.44-8.005" />
  <path
     id="path102"
     style="fill:#5691ff"
     d="m50.306 80.083c1.025 2.654 4.164 8.347 3.134 11.172-1.019 2.792-3.354 11.485-6.845 7.531-4.051-4.591-4.409-7.113-2.89-12.747 1.473-5.453 1.021-5.538 6.601-5.956" />
  <path
     id="path104"
     style="fill:#2b4ddd"
     d="m50.231 79.109c-5.378 0.408-5.572-0.197-6.993 4.937-1.854 6.69-2.21 10.018 2.751 15.526 4.294 4.778 7.005-4.37 8.248-7.665 0.947-2.513-1.686-12.225-4.006-12.798m-0.58 2c2.556 6.686 4.179 12.175-1.239 18.091-2.041-1.473-5.481-5.659-4.911-8.353 0.456-2.147 1.063-4.266 1.648-6.381 0.926-3.347 1.171-3.107 4.502-3.357" />
  <path
     id="path106"
     style="fill:#5691ff"
     d="m42.163 76.226c0.972-0.757 3.157-3.26 4.333-3.371 0.666-0.063 4.449 1.736 4.519 2.338 0.805 6.936-6.652 6.39-8.852 1.033" />
  <path
     id="path108"
     style="fill:#2b4ddd"
     d="m45.896 72.081c-0.843 0.658-5.12 3.253-4.773 4.154 1.115 2.9 3.563 5.877 7.026 5.354 7.033-1.066 3.919-10.754-2.253-9.508m0.732 1.908c1.149 0.525 2.297 1.055 3.447 1.578 0.111 1.628-0.157 3.786-2.219 4.088-1.651 0.254-2.975-0.854-3.853-2.102-1.198-1.702 1.29-2.519 2.625-3.564" />
  <path
     id="path127"
     style="fill:url(#XMLID_30_)"
     d="m53.317 64.211c-3.777 1.454-7.819 2.194-11.866 2.194-4.659 0-8.498-2.01-12.785-0.148 2.869 5.048 5.976 9.966 9.083 14.869 1.629-1.888 6.117-7.502 8.946-7.766 2.743-0.256 8.024 4.145 9.965 5.621 0.758-2.927 1.33-5.9 1.716-8.896 0.468-3.641-2.208-4.042-5.059-5.874" />
  <path
     id="path129"
     style="fill:#6e92f9"
     d="m45.104 57.795c-7.28 3.157-14.559 6.314-21.838 9.472 4.505 5.992 8.49 12.169 12.502 18.506 2.708-4.196 8.405-12.517 13.745-9.804 1.9 0.964 9.105 7.367 10.564 6.923 2.576-0.793 3.386-7.814 3.84-9.926 1.025-4.785-3.376-5.561-7.259-8.054-3.342-2.148-7.805-6.243-11.554-7.117m0.182 1.259c4.099 2.657 8.222 5.282 12.333 7.919 1.782 1.145 3.563 2.289 5.348 3.431 0.781 0.503-1.822 10.323-3.192 11.261-2.293-2.257-9.366-8.709-13.079-8.305-3.649 0.395-9.02 7.624-10.881 10.212-3.405-5.413-6.815-10.685-10.64-15.805 6.71-2.885 13.401-5.822 20.111-8.713" />
  <path
     id="path131"
     style="fill:#5691ff"
     d="m26.16 63.675c6.3 12.491 14.626 24.167 22.325 35.825 5.254-7.044 8.396-15.868 10.073-24.409 0.752-3.822 1.194-7.703 1.338-11.597 0.021-0.556 3.85 2.529 4.052 2.727 1.376 1.342 3.988 3.792 3.633 5.985-0.356 2.184-5.213 2.658-5.213 4.306 0 2.016 7.429 0.881 5.748 4.479-1.812 3.873-4.862 7.383-7.648 10.573-3.149 3.611-9.471 12.146-14.171 9.426-5.917-3.434-11.75-7.193-16.956-11.65-0.941-0.802-5.203-3.792-4.025-5.433 0.881-1.227 8.026-5.601 4.31-6.47-2.94-0.687-9.074-0.059-8.876-4.505 0.154-3.511 3.064-6.863 5.41-9.257" />
  <path
     id="path133"
     style="fill:#2b4ddd"
     d="m25.479 62.978c-2.604 2.552-5.714 6.318-5.714 10.156 0 5.271 6.525 4.285 10.002 5.364-4.31 5.584-7.897 5.598-1.545 11.182 2.894 2.546 6.039 4.809 9.235 6.952 2.125 1.428 8.785 7.158 11.255 6.858 2.019-0.25 5.28-3.983 6.715-5.313 3.395-3.138 6.506-6.597 9.314-10.268 4.098-5.354 6.995-8.791-0.771-11.521 5.012-2.99 5.754-5.466 1.575-9.949-1.213-1.302-3.464-3.907-5.397-4.068-2.053-0.17-1.658 6.894-1.846 8.275-1.295 9.479-4.398 19.144-9.789 27.126-7.632-11.58-16.056-23.216-22.081-35.736-0.317 0.317-0.636 0.63-0.953 0.942m3.077 19.262c5.292-4.338 2.814-5.521-2.761-6.39-6.871-1.065-3.045-6.94 0.138-10.508 6.617 12.324 14.614 24.041 22.368 35.678-6.029-3.428-11.939-7.184-17.313-11.581-3.291-2.693-6.337-3.999-2.432-7.199m20.684 17.87c7.674-9.51 10.909-23.438 11.549-35.298 2.443 1.75 8.326 6.289 4.105 8.817-8.143 4.878 1.146 2.842 2.563 6.443-0.484 3.229-4.614 7.163-6.588 9.508-3.466 4.118-7.692 9.055-12.402 11.53 0.259-0.34 0.516-0.67 0.773-1" />
  <path
     id="path135"
     style="fill:#fcd095"
     d="m72.611 35.625c0 16.819-14.704 29.945-31.16 29.945s-31.159-13.125-31.159-29.945c0-16.824 14.695-29.961 31.159-29.961 16.466 0 31.16 13.135 31.16 29.961" />
  <path
     id="path137"
     style="fill:#ffe2ae"
     d="m20.552 24.38c7.105-8.318 19.498-10.375 29.683-7.564 11.167 3.082 16.838 12.109 18.526 23.097 2.482-16.339-11.16-30.507-27.311-30.507-16.169 0-29.785 14.179-27.309 30.521 0.843-5.476 2.771-11.272 6.411-15.547" />
  <path
     id="path139"
     style="fill:#fabb78"
     d="m71.489 32.017c-1.729 13.303-9.03 23.476-22.929 25.903-17.01 2.973-34.852-7.91-37.146-25.899-2.506 18.459 14.027 33.795 32.025 32.667 16.633-1.042 30.213-15.796 28.05-32.671" />
  <path
     id="path148"
     style="fill:url(#XMLID_31_)"
     d="m11.379 32.092c-0.813 1.694-0.388 4.029-0.133 5.782-0.153-1.924-0.108-3.868 0.133-5.782m59.651-2.775c3.902 16.911-8.826 33.075-25.636 35.187-9.197 1.158-18.654-1.849-25.357-8.285-6.042-5.805-7.714-13.415-10.608-20.727 0 17.46 15.024 30.912 32.021 30.912 19.038 0 35.268-17.132 31.47-36.502 0.16 0.365 0.134 0.678-0.081 0.944-0.705-0.381-1.307-0.891-1.809-1.529m1.146-1.737c0.034 0.744 0.034 0.744 0 0m-0.031-0.519c0.034 0.558 0.034 0.558 0 0m-0.025-0.303c0.023 0.283 0.008 0.075 0 0" />
  <path
     id="path150"
     style="fill:#c48e53"
     d="m63.622 9.999c5.319 5.408 8.267 10.125 8.579 18.137-0.016-0.474-6-5.621-6.912-6.364-2.241-1.828-4.825 2.076-7.013 3.194-5.531 2.829-13.938 4.986-20.032 2.97-3.257-1.076-7.037-3.259-10.565-2.187-2.042 0.622-3.348 2.404-4.157 4.288-0.822 1.911-0.941 9.577-2.182 10.387-0.472 0.305-4.476-8.778-5.009-9.587-6.491-9.828-6.333 7.344-5.56 7.149-4.173 1.039-0.913-16.605-0.296-17.99 2.931-6.581 8.27-11.659 14.725-14.747 11.676-5.586 28.907-4.993 38.422 4.75" />
  <path
     id="path159"
     style="fill:url(#XMLID_32_)"
     d="m8.384 30.29c0.077 1.786 1.136 3.766 1.136 5.424-0.226-0.53 1.01 2.457 1.264 2.265 0.409-2.72-1.855-5.035-2.4-7.689m55.033-12.057c-0.721 0-3.177 2.711-3.924 3.174-2.185 1.352-4.615 2.295-7.086 2.98-6.548 1.815-11.752 1.105-18.231 0.036-3.759-0.618-7.025-2.871-9.781 0.793-1.062 1.411-3.777 12.553-3.482 12.553-1.411 0-4.004-8.16-4.756-9.373-0.889-1.438-3.605-3.591-5.321-2.227-1.774 1.408-0.872 5.2-0.59 7.035-0.751-3.993 1.699-5.624 5.019-3.552 1.301 1.246 4.823 10.945 6.019 10.797 0.411-0.095 1.97-10.09 2.811-11.573 1.166-2.063 3.036-3.384 5.443-3.384 4.122 0.141 7.688 3.068 11.764 3.068 5.175 0 10.479-0.783 15.271-2.802 1.598-0.674 5.926-4.838 7.173-4.838 3.266-0.635 5.41 7.404 8.341 7.404 0.459 0-0.302-4.381-0.354-4.673 0.413 0.763 0.419 1.427 0.021 1.993-3.103-0.001-4.854-7.411-8.337-7.411" />
  <path
     id="path161"
     style="fill:#d8ac77"
     d="m59.351 18.681c0 9.547-35.024 8.686-35.024 0.637 6.436 1.407 13.557 2.576 20.138 1.896 1.709-0.179 14.886-4.899 14.886-2.533" />
  <path
     id="path163"
     style="fill:#f3d4b2"
     d="m71.406 21.989c0.609 2.588 0.999 5.299 1.515 7.914-0.166-2.684-0.604-5.375-1.515-7.914" />
  <path
     id="path165"
     style="fill:#f2bd7e"
     d="m12.264 28.514c-0.528 0-0.836 3.203-0.885 3.578-0.09 0.191 0.035-0.089 0.035-0.072 0.582-1.128 1.774-1.125 2.83-0.741 0.385-2.068 0.415-2.765-1.98-2.765m49.072-5.466c-3.649 2.822-8.339 4.23-12.832 4.95-6.579 1.059-10.14-0.625-16.375-2.154-8.283-2.032-10.009 7.094-10.484 13.461 0.149 0.612 0.017 0.993-0.398 1.147-2.193-2.625-2.904-6.314-4.689-9.258-0.333 0.809 4.18 11.774 5.446 11.774 2.313 0 0.169-16.826 10.332-14.734 6.244 1.282 10.115 3.344 16.749 2.308 4.873-0.763 10.139-2.325 13.884-5.695-0.51-0.631-1.053-1.23-1.633-1.799m3.021-1.924c2.12 3.006 4.094 5.522 6.673 8.193-0.732-3.177-3.751-6.601-6.673-8.193" />
  <path
     id="path167"
     style="fill:#f3c58a"
     d="m14.691 29.317c-0.822 3.042-0.695 1.279 1.447 2.943 0.562-1.506-0.133-2.217-1.447-2.943m49.053-8.397c-0.658 0-1.923 1.753-2.408 2.128 0.58 0.569 1.123 1.168 1.631 1.8 1.647-1.48 1.63-1.839 3.483-0.201-0.425-0.862-1.468-3.727-2.706-3.727" />
  <path
     id="path169"
     style="fill:#f1b26f"
     d="m11.247 37.874c0.108 0.862 0.215 1.724 0.324 2.585-0.04-0.868-0.149-1.73-0.324-2.585m0.167-5.857v0" />
  <path
     id="path178"
     style="fill:url(#XMLID_33_)"
     d="m12.067 28.524c-2.128 0.194-1.916 3.371-1.805 4.795-0.003-0.02 0.757 4.505 0.521 4.66-0.395-0.733-0.927-1.43-1.261-2.252 0.125 0.569 1.113 4.792 1.998 4.792-1.466 0 0.244-10.834 0.547-11.995m60.056-1.766c0.033 0.46 0.059 0.917 0.078 1.377 0.019 0.119-0.021 0.181-0.116 0.188-0.678-0.362-1.259-0.849-1.74-1.464 0.28 0.849 0.776 3.986 2.495 3.986 0.512 0.001-0.644-3.85-0.717-4.087" />
  <path
     id="path180"
     style="fill:#d69c5d"
     d="m21.384 40.387c-0.04 0.043-0.085 0.066-0.138 0.066 0.046-0.023 0.092-0.047 0.138-0.066m-10.695-2.441c0.025 0.014 0.049 0.027 0.074 0.04-0.025-0.013-0.049-0.026-0.074-0.04m-0.669-1.124c0.066 0.125 0.132 0.253 0.197 0.378-0.066-0.125-0.132-0.253-0.197-0.378m-0.191-0.391c0.107 0.216 0.107 0.216 0 0m-0.186-0.415c0.14 0.313 0.14 0.313 0 0m-0.122-0.299c0 0.013 0.196 0.496 0 0m2.743-7.203c-0.367 0.118-0.731 0.237-1.099 0.355 1.608-0.753 4.512 1.042 4.098 0.783-0.904-0.648-1.904-1.029-2.999-1.138m59.895-0.213c-0.025 0.006-0.05 0.016-0.074 0.023 0.024-0.007 0.049-0.017 0.074-0.023m0.011-0.82c0.007 0.132 0.007 0.132 0 0m-0.037-0.588c0.014 0.224 0.014 0.224 0 0m-42.41-1.401c1.674 0.118 3.292 0.486 4.853 1.108-1.559-0.556-3.184-1.062-4.853-1.108m-0.187 0c-0.239 0-0.239 0 0 0m38.694-0.872c0.422 0.451 0.847 0.901 1.27 1.352-0.423-0.451-0.845-0.901-1.27-1.352m3.153-2.696c0.362 1.542 0.604 3.101 0.727 4.68-0.073-0.915-0.376-3.763-0.727-4.68m-7.639-1.004c-0.313 0.089-0.313 0.089 0 0" />
  <path
     id="path189"
     style="fill:url(#XMLID_34_)"
     d="m10.784 37.979c-0.028 0.01-0.028 0.01 0 0m-1.264-2.265c0 0.522 0.903 1.986 1.169 2.232-0.481-0.694-0.872-1.436-1.169-2.232m0.955-0.484c0-0.994 0.416 2.67 0.309 2.749 0.02-0.927-0.084-1.845-0.309-2.749m5.202-5.232c1.042 1.348 4.165 10.455 5.569 10.455-2.731-2.806-2.779-7.591-5.569-10.455m-0.413-0.346m-4.098-0.782c-1.133 0.904-1.116 3.223-0.903 4.45-0.102-1.29-0.288-3.49 0.903-4.45m61.035-0.734c-0.056 0.217-0.056 0.217 0 0m-2.701-2.164c0.464 0.572 1.776 2.352 2.585 2.352-0.995-0.629-1.857-1.414-2.585-2.352m-40.144-0.48c-2.335 0.055-4.134 1.387-5.264 3.384-0.841 1.482-2.399 11.478-2.811 11.573 0.375-0.197 0.495-0.579 0.362-1.144 0.335-4.752 1.261-13.662 7.713-13.813m0.18 0c0.381-0.004 0.761 0.023 1.139 0.075-0.38-0.026-0.759-0.052-1.139-0.075m33.973-4.506c-4.37 2.914-7.434 5.437-12.866 6.61-7.437 1.608-11.796-0.243-18.807-1.822 6.264 1.415 9.976 3.289 16.602 2.233 6.354-1.009 10.007-3.647 15.071-7.021m0.236-0.066c-0.001 0-0.001 0 0 0 1.894 0.753 3.253 2.438 4.649 3.875-0.898-0.924-3.058-3.875-4.649-3.875" />
  <path
     id="path196"
     style="fill:url(#XMLID_35_)"
     d="m9.21 32.921c0-18.706 18.419-31.275 36.011-29.248 19.193 2.213 34.029 21.759 25.532 40.562 11.567-20.806-7.844-44.235-29.629-44.235-21.787 0-40.992 23.502-29.461 44.238-1.604-3.549-2.453-7.419-2.453-11.317" />
  <metadata
     id="metadata3385">
    <rdf:RDF>
      <cc:Work>
        <dc:format>image/svg+xml</dc:format>
        <dc:type
           rdf:resource="http://purl.org/dc/dcmitype/StillImage" />
        <cc:license
           rdf:resource="http://creativecommons.org/licenses/publicdomain/" />
        <dc:publisher>
          <cc:Agent
             rdf:about="http://openclipart.org/">
            <dc:title>Openclipart</dc:title>
          </cc:Agent>
        </dc:publisher>
        <dc:title>Architetto -- signore</dc:title>
        <dc:date>2010-03-26T20:30:02</dc:date>
        <dc:description>Drawing by Francesco 'Architetto' Rollandin. From OCAL 0.18 release.</dc:description>
        <dc:source>https://openclipart.org/detail/34345/architetto----signore-by-anonymous</dc:source>
        <dc:creator>
          <cc:Agent>
            <dc:title>Anonymous</dc:title>
          </cc:Agent>
        </dc:creator>
        <dc:subject>
          <rdf:Bag>
            <rdf:li>icon</rdf:li>
            <rdf:li>man</rdf:li>
            <rdf:li>microphone</rdf:li>
            <rdf:li>people</rdf:li>
            <rdf:li>user</rdf:li>
          </rdf:Bag>
        </dc:subject>
      </cc:Work>
      <cc:License
         rdf:about="http://creativecommons.org/licenses/publicdomain/">
        <cc:permits
           rdf:resource="http://creativecommons.org/ns#Reproduction" />
        <cc:permits
           rdf:resource="http://creativecommons.org/ns#Distribution" />
        <cc:permits
           rdf:resource="http://creativecommons.org/ns#DerivativeWorks" />
      </cc:License>
    </rdf:RDF>
  </metadata>
</svg>
